<mxfile host="app.diagrams.net" modified="2023-04-02T06:06:11.333Z" agent="Mozilla/5.0 (Windows NT 10.0; Win64; x64) AppleWebKit/537.36 (KHTML, like Gecko) Chrome/111.0.0.0 Safari/537.36" version="21.1.2" etag="3uPw-OIOtJ_WtqZdxb4L" type="github">
  <diagram name="第 1 页" id="C_-68RcT0mPjwZaJ2Nnw">
    <mxGraphModel>
      <root>
        <mxCell id="0" />
        <mxCell id="1" parent="0" />
      </root>
    </mxGraphModel>
  </diagram>
</mxfile>
